<svg xmlns="http://www.w3.org/2000/svg" version="1.1" xmlns:xlink="http://www.w3.org/1999/xlink" width="200" height="200"><svg xmlns="http://www.w3.org/2000/svg" version="1.1" xmlns:xlink="http://www.w3.org/1999/xlink" viewBox="0 0 200 200"><rect width="200" height="200" fill="url('#gradient')"></rect><defs><linearGradient id="SvgjsLinearGradient1001" gradientTransform="rotate(45 0.5 0.5)"><stop offset="0%" stop-color="#deae42"></stop><stop offset="100%" stop-color="#b84833"></stop></linearGradient></defs><g><g fill="#1c2e40" transform="matrix(6.893044128646223,0,0,6.893044128646223,2.6004243053066745,140.70662151099856)" stroke="#37af61" stroke-width="0.2"><path d="M12.96-14.22L12.96 0L9.55 0L9.55-5.94L4.50-5.94L4.50 0L1.07 0L1.07-14.22L4.50-14.22L4.50-8.57L9.55-8.57L9.55-14.22L12.96-14.22ZM27.19-7.47L27.19-6.82Q27.19-4.84 26.53-3.37Q25.88-1.90 24.73-1.02L24.73-1.02L27.02 0.80L24.90 2.60L21.85 0.14Q21.42 0.20 20.99 0.20L20.99 0.20Q19.17 0.20 17.76-0.64Q16.36-1.48 15.57-3.05Q14.79-4.61 14.76-6.64L14.76-6.64L14.76-7.39Q14.76-9.49 15.52-11.08Q16.29-12.68 17.71-13.54Q19.13-14.41 20.97-14.41L20.97-14.41Q22.77-14.41 24.19-13.55Q25.61-12.70 26.39-11.11Q27.18-9.52 27.19-7.47L27.19-7.47ZM23.70-6.76L23.70-7.41Q23.70-9.53 22.99-10.63Q22.29-11.73 20.97-11.73L20.97-11.73Q19.61-11.73 18.93-10.64Q18.24-9.56 18.23-7.47L18.23-7.47L18.23-6.82Q18.23-4.72 18.93-3.60Q19.62-2.48 20.99-2.48L20.99-2.48Q22.29-2.48 22.99-3.58Q23.69-4.69 23.70-6.76L23.70-6.76Z"></path></g></g></svg><style>@media (prefers-color-scheme: light) { :root { filter: none; } }
@media (prefers-color-scheme: dark) { :root { filter: none; } }
</style></svg>